<mxfile host="app.diagrams.net" agent="Mozilla/5.0 (Windows NT 10.0; Win64; x64) AppleWebKit/537.36 (KHTML, like Gecko) Chrome/135.0.0.0 Safari/537.36" version="26.2.12">
  <diagram name="Pagina-1" id="gnj2IBbLHFrgtZmkrsPE">
    <mxGraphModel dx="3525" dy="4069" grid="1" gridSize="10" guides="1" tooltips="1" connect="1" arrows="1" fold="1" page="1" pageScale="1" pageWidth="827" pageHeight="1169" math="0" shadow="0">
      <root>
        <mxCell id="0" />
        <mxCell id="1" parent="0" />
        <mxCell id="6byXY10DVbZ5gj3JFGft-1" value="" style="rounded=0;whiteSpace=wrap;html=1;" vertex="1" parent="1">
          <mxGeometry x="-2420" y="-3442" width="790" height="422" as="geometry" />
        </mxCell>
        <mxCell id="6byXY10DVbZ5gj3JFGft-2" value="Schema Monotasking" style="text;html=1;align=center;verticalAlign=middle;resizable=0;points=[];autosize=1;strokeColor=none;fillColor=none;" vertex="1" parent="1">
          <mxGeometry x="-2150" y="-3472" width="140" height="30" as="geometry" />
        </mxCell>
        <mxCell id="6byXY10DVbZ5gj3JFGft-6" value="" style="line;strokeWidth=2;html=1;" vertex="1" parent="1">
          <mxGeometry x="-2340" y="-3070" width="700" height="10" as="geometry" />
        </mxCell>
        <mxCell id="6byXY10DVbZ5gj3JFGft-7" value="" style="line;strokeWidth=2;direction=south;html=1;" vertex="1" parent="1">
          <mxGeometry x="-2340" y="-3420" width="10" height="360" as="geometry" />
        </mxCell>
        <mxCell id="6byXY10DVbZ5gj3JFGft-8" value="Processo" style="text;html=1;align=center;verticalAlign=middle;resizable=0;points=[];autosize=1;strokeColor=none;fillColor=none;rotation=-90;" vertex="1" parent="1">
          <mxGeometry x="-2390" y="-3400" width="70" height="30" as="geometry" />
        </mxCell>
        <mxCell id="6byXY10DVbZ5gj3JFGft-9" value="Tempo (t)" style="text;html=1;align=center;verticalAlign=middle;resizable=0;points=[];autosize=1;strokeColor=none;fillColor=none;" vertex="1" parent="1">
          <mxGeometry x="-1710" y="-3070" width="70" height="30" as="geometry" />
        </mxCell>
        <mxCell id="6byXY10DVbZ5gj3JFGft-10" value="A" style="text;html=1;align=center;verticalAlign=middle;resizable=0;points=[];autosize=1;strokeColor=none;fillColor=none;" vertex="1" parent="1">
          <mxGeometry x="-2370" y="-3140" width="30" height="30" as="geometry" />
        </mxCell>
        <mxCell id="6byXY10DVbZ5gj3JFGft-11" value="B" style="text;html=1;align=center;verticalAlign=middle;resizable=0;points=[];autosize=1;strokeColor=none;fillColor=none;" vertex="1" parent="1">
          <mxGeometry x="-2370" y="-3182" width="30" height="30" as="geometry" />
        </mxCell>
        <mxCell id="6byXY10DVbZ5gj3JFGft-13" value="C" style="text;html=1;align=center;verticalAlign=middle;resizable=0;points=[];autosize=1;strokeColor=none;fillColor=none;" vertex="1" parent="1">
          <mxGeometry x="-2370" y="-3230" width="30" height="30" as="geometry" />
        </mxCell>
        <mxCell id="6byXY10DVbZ5gj3JFGft-14" value="D" style="text;html=1;align=center;verticalAlign=middle;resizable=0;points=[];autosize=1;strokeColor=none;fillColor=none;" vertex="1" parent="1">
          <mxGeometry x="-2370" y="-3280" width="30" height="30" as="geometry" />
        </mxCell>
        <mxCell id="6byXY10DVbZ5gj3JFGft-15" value="" style="line;strokeWidth=2;html=1;" vertex="1" parent="1">
          <mxGeometry x="-2340" y="-3130" width="690" height="10" as="geometry" />
        </mxCell>
        <mxCell id="6byXY10DVbZ5gj3JFGft-16" value="" style="line;strokeWidth=2;html=1;" vertex="1" parent="1">
          <mxGeometry x="-2340" y="-3172" width="690" height="10" as="geometry" />
        </mxCell>
        <mxCell id="6byXY10DVbZ5gj3JFGft-17" value="" style="line;strokeWidth=2;html=1;" vertex="1" parent="1">
          <mxGeometry x="-2340" y="-3220" width="690" height="10" as="geometry" />
        </mxCell>
        <mxCell id="6byXY10DVbZ5gj3JFGft-18" value="" style="line;strokeWidth=2;html=1;" vertex="1" parent="1">
          <mxGeometry x="-2340" y="-3270" width="680" height="10" as="geometry" />
        </mxCell>
        <mxCell id="6byXY10DVbZ5gj3JFGft-36" value="" style="line;strokeWidth=2;direction=south;html=1;" vertex="1" parent="1">
          <mxGeometry x="-2320" y="-3080" width="10" height="30" as="geometry" />
        </mxCell>
        <mxCell id="6byXY10DVbZ5gj3JFGft-37" value="" style="line;strokeWidth=2;direction=south;html=1;" vertex="1" parent="1">
          <mxGeometry x="-2280" y="-3080" width="10" height="30" as="geometry" />
        </mxCell>
        <mxCell id="6byXY10DVbZ5gj3JFGft-38" value="" style="line;strokeWidth=2;direction=south;html=1;" vertex="1" parent="1">
          <mxGeometry x="-2240" y="-3080" width="10" height="30" as="geometry" />
        </mxCell>
        <mxCell id="6byXY10DVbZ5gj3JFGft-39" value="" style="line;strokeWidth=2;direction=south;html=1;" vertex="1" parent="1">
          <mxGeometry x="-2200" y="-3080" width="10" height="30" as="geometry" />
        </mxCell>
        <mxCell id="6byXY10DVbZ5gj3JFGft-40" value="" style="line;strokeWidth=2;direction=south;html=1;" vertex="1" parent="1">
          <mxGeometry x="-2160" y="-3080" width="10" height="30" as="geometry" />
        </mxCell>
        <mxCell id="6byXY10DVbZ5gj3JFGft-41" value="" style="line;strokeWidth=2;direction=south;html=1;" vertex="1" parent="1">
          <mxGeometry x="-2120" y="-3080" width="10" height="30" as="geometry" />
        </mxCell>
        <mxCell id="6byXY10DVbZ5gj3JFGft-42" value="" style="line;strokeWidth=2;direction=south;html=1;" vertex="1" parent="1">
          <mxGeometry x="-2077" y="-3080" width="10" height="30" as="geometry" />
        </mxCell>
        <mxCell id="6byXY10DVbZ5gj3JFGft-43" value="" style="line;strokeWidth=2;direction=south;html=1;" vertex="1" parent="1">
          <mxGeometry x="-2040" y="-3080" width="10" height="30" as="geometry" />
        </mxCell>
        <mxCell id="6byXY10DVbZ5gj3JFGft-44" value="" style="line;strokeWidth=2;direction=south;html=1;" vertex="1" parent="1">
          <mxGeometry x="-2000" y="-3080" width="10" height="30" as="geometry" />
        </mxCell>
        <mxCell id="6byXY10DVbZ5gj3JFGft-45" value="" style="line;strokeWidth=2;direction=south;html=1;" vertex="1" parent="1">
          <mxGeometry x="-1960" y="-3080" width="10" height="30" as="geometry" />
        </mxCell>
        <mxCell id="6byXY10DVbZ5gj3JFGft-46" value="" style="line;strokeWidth=2;direction=south;html=1;" vertex="1" parent="1">
          <mxGeometry x="-1920" y="-3080" width="10" height="30" as="geometry" />
        </mxCell>
        <mxCell id="6byXY10DVbZ5gj3JFGft-47" value="" style="line;strokeWidth=2;direction=south;html=1;" vertex="1" parent="1">
          <mxGeometry x="-1880" y="-3080" width="10" height="30" as="geometry" />
        </mxCell>
        <mxCell id="6byXY10DVbZ5gj3JFGft-48" value="" style="line;strokeWidth=2;direction=south;html=1;" vertex="1" parent="1">
          <mxGeometry x="-1840" y="-3080" width="10" height="30" as="geometry" />
        </mxCell>
        <mxCell id="6byXY10DVbZ5gj3JFGft-49" value="" style="line;strokeWidth=2;direction=south;html=1;" vertex="1" parent="1">
          <mxGeometry x="-1800" y="-3080" width="10" height="30" as="geometry" />
        </mxCell>
        <mxCell id="6byXY10DVbZ5gj3JFGft-51" value="1" style="text;html=1;align=center;verticalAlign=middle;resizable=0;points=[];autosize=1;strokeColor=none;fillColor=none;" vertex="1" parent="1">
          <mxGeometry x="-2330" y="-3050" width="30" height="30" as="geometry" />
        </mxCell>
        <mxCell id="6byXY10DVbZ5gj3JFGft-52" value="2" style="text;whiteSpace=wrap;html=1;" vertex="1" parent="1">
          <mxGeometry x="-2280" y="-3050" width="20" height="40" as="geometry" />
        </mxCell>
        <mxCell id="6byXY10DVbZ5gj3JFGft-53" value="&lt;span style=&quot;color: rgb(0, 0, 0); font-family: Helvetica; font-size: 12px; font-style: normal; font-variant-ligatures: normal; font-variant-caps: normal; font-weight: 400; letter-spacing: normal; orphans: 2; text-align: center; text-indent: 0px; text-transform: none; widows: 2; word-spacing: 0px; -webkit-text-stroke-width: 0px; white-space: nowrap; background-color: rgb(236, 236, 236); text-decoration-thickness: initial; text-decoration-style: initial; text-decoration-color: initial; float: none; display: inline !important;&quot;&gt;3&lt;/span&gt;" style="text;whiteSpace=wrap;html=1;" vertex="1" parent="1">
          <mxGeometry x="-2240" y="-3050" width="20" height="30" as="geometry" />
        </mxCell>
        <mxCell id="6byXY10DVbZ5gj3JFGft-54" value="4" style="text;whiteSpace=wrap;html=1;" vertex="1" parent="1">
          <mxGeometry x="-2200" y="-3050" width="10" height="40" as="geometry" />
        </mxCell>
        <mxCell id="6byXY10DVbZ5gj3JFGft-55" value="5" style="text;whiteSpace=wrap;html=1;" vertex="1" parent="1">
          <mxGeometry x="-2160" y="-3050" width="20" height="30" as="geometry" />
        </mxCell>
        <mxCell id="6byXY10DVbZ5gj3JFGft-56" value="6" style="text;whiteSpace=wrap;html=1;" vertex="1" parent="1">
          <mxGeometry x="-2120" y="-3050" width="10" height="40" as="geometry" />
        </mxCell>
        <mxCell id="6byXY10DVbZ5gj3JFGft-57" value="7" style="text;whiteSpace=wrap;html=1;" vertex="1" parent="1">
          <mxGeometry x="-2077" y="-3050" width="10" height="40" as="geometry" />
        </mxCell>
        <mxCell id="6byXY10DVbZ5gj3JFGft-58" value="8" style="text;whiteSpace=wrap;html=1;" vertex="1" parent="1">
          <mxGeometry x="-2040" y="-3050" width="10" height="30" as="geometry" />
        </mxCell>
        <mxCell id="6byXY10DVbZ5gj3JFGft-59" value="9" style="text;whiteSpace=wrap;html=1;" vertex="1" parent="1">
          <mxGeometry x="-2000" y="-3050" width="20" height="30" as="geometry" />
        </mxCell>
        <mxCell id="6byXY10DVbZ5gj3JFGft-60" value="10" style="text;whiteSpace=wrap;html=1;" vertex="1" parent="1">
          <mxGeometry x="-1965" y="-3050" width="20" height="30" as="geometry" />
        </mxCell>
        <mxCell id="6byXY10DVbZ5gj3JFGft-61" value="11" style="text;whiteSpace=wrap;html=1;" vertex="1" parent="1">
          <mxGeometry x="-1925" y="-3050" width="20" height="30" as="geometry" />
        </mxCell>
        <mxCell id="6byXY10DVbZ5gj3JFGft-62" value="12" style="text;whiteSpace=wrap;html=1;" vertex="1" parent="1">
          <mxGeometry x="-1885" y="-3050" width="20" height="30" as="geometry" />
        </mxCell>
        <mxCell id="6byXY10DVbZ5gj3JFGft-63" value="14" style="text;whiteSpace=wrap;html=1;" vertex="1" parent="1">
          <mxGeometry x="-1805" y="-3050" width="20" height="30" as="geometry" />
        </mxCell>
        <mxCell id="6byXY10DVbZ5gj3JFGft-64" value="13" style="text;whiteSpace=wrap;html=1;" vertex="1" parent="1">
          <mxGeometry x="-1845" y="-3050" width="20" height="30" as="geometry" />
        </mxCell>
        <mxCell id="6byXY10DVbZ5gj3JFGft-65" value="" style="rounded=0;whiteSpace=wrap;html=1;strokeColor=light-dark(#bbff00, #ededed);fillColor=#FFF60A;" vertex="1" parent="1">
          <mxGeometry x="-2335" y="-3140" width="105" height="30" as="geometry" />
        </mxCell>
        <mxCell id="6byXY10DVbZ5gj3JFGft-66" value="" style="rounded=0;whiteSpace=wrap;html=1;fillColor=light-dark(#ff0000, #ededed);" vertex="1" parent="1">
          <mxGeometry x="-2230" y="-3140" width="70" height="30" as="geometry" />
        </mxCell>
        <mxCell id="6byXY10DVbZ5gj3JFGft-67" value="" style="rounded=0;whiteSpace=wrap;html=1;fillColor=#FFF60A;" vertex="1" parent="1">
          <mxGeometry x="-2160" y="-3140" width="50" height="30" as="geometry" />
        </mxCell>
        <mxCell id="6byXY10DVbZ5gj3JFGft-68" value="" style="rounded=0;whiteSpace=wrap;html=1;fillColor=#FFF60A;" vertex="1" parent="1">
          <mxGeometry x="-2110" y="-3190" width="80" height="40" as="geometry" />
        </mxCell>
        <mxCell id="6byXY10DVbZ5gj3JFGft-69" value="" style="rounded=0;whiteSpace=wrap;html=1;fillColor=#FF0000;" vertex="1" parent="1">
          <mxGeometry x="-2030" y="-3190" width="40" height="40" as="geometry" />
        </mxCell>
        <mxCell id="6byXY10DVbZ5gj3JFGft-70" value="" style="rounded=0;whiteSpace=wrap;html=1;fillColor=#FFF60A;" vertex="1" parent="1">
          <mxGeometry x="-1990" y="-3240" width="40" height="40" as="geometry" />
        </mxCell>
        <mxCell id="6byXY10DVbZ5gj3JFGft-71" value="" style="rounded=0;whiteSpace=wrap;html=1;fillColor=#FFF60A;" vertex="1" parent="1">
          <mxGeometry x="-1945" y="-3285" width="155" height="40" as="geometry" />
        </mxCell>
        <mxCell id="6byXY10DVbZ5gj3JFGft-73" value="" style="line;strokeWidth=2;direction=south;html=1;" vertex="1" parent="1">
          <mxGeometry x="-1960" y="-3080" width="400" height="30" as="geometry" />
        </mxCell>
        <mxCell id="6byXY10DVbZ5gj3JFGft-74" value="15" style="text;html=1;align=center;verticalAlign=middle;resizable=0;points=[];autosize=1;strokeColor=none;fillColor=none;" vertex="1" parent="1">
          <mxGeometry x="-1780" y="-3050" width="40" height="30" as="geometry" />
        </mxCell>
        <mxCell id="6byXY10DVbZ5gj3JFGft-75" value="" style="rounded=0;whiteSpace=wrap;html=1;fillColor=#FF0000;" vertex="1" parent="1">
          <mxGeometry x="-1790" y="-3285" width="40" height="40" as="geometry" />
        </mxCell>
        <mxCell id="6byXY10DVbZ5gj3JFGft-77" value="" style="rounded=0;whiteSpace=wrap;html=1;" vertex="1" parent="1">
          <mxGeometry x="-2410" y="-2930" width="790" height="422" as="geometry" />
        </mxCell>
        <mxCell id="6byXY10DVbZ5gj3JFGft-78" value="" style="line;strokeWidth=2;html=1;" vertex="1" parent="1">
          <mxGeometry x="-2330" y="-2558" width="700" height="10" as="geometry" />
        </mxCell>
        <mxCell id="6byXY10DVbZ5gj3JFGft-79" value="" style="line;strokeWidth=2;direction=south;html=1;" vertex="1" parent="1">
          <mxGeometry x="-2330" y="-2908" width="10" height="360" as="geometry" />
        </mxCell>
        <mxCell id="6byXY10DVbZ5gj3JFGft-80" value="Processo" style="text;html=1;align=center;verticalAlign=middle;resizable=0;points=[];autosize=1;strokeColor=none;fillColor=none;rotation=-90;" vertex="1" parent="1">
          <mxGeometry x="-2380" y="-2888" width="70" height="30" as="geometry" />
        </mxCell>
        <mxCell id="6byXY10DVbZ5gj3JFGft-81" value="Tempo (t)" style="text;html=1;align=center;verticalAlign=middle;resizable=0;points=[];autosize=1;strokeColor=none;fillColor=none;" vertex="1" parent="1">
          <mxGeometry x="-1700" y="-2558" width="70" height="30" as="geometry" />
        </mxCell>
        <mxCell id="6byXY10DVbZ5gj3JFGft-82" value="A" style="text;html=1;align=center;verticalAlign=middle;resizable=0;points=[];autosize=1;strokeColor=none;fillColor=none;" vertex="1" parent="1">
          <mxGeometry x="-2360" y="-2628" width="30" height="30" as="geometry" />
        </mxCell>
        <mxCell id="6byXY10DVbZ5gj3JFGft-83" value="B" style="text;html=1;align=center;verticalAlign=middle;resizable=0;points=[];autosize=1;strokeColor=none;fillColor=none;" vertex="1" parent="1">
          <mxGeometry x="-2360" y="-2670" width="30" height="30" as="geometry" />
        </mxCell>
        <mxCell id="6byXY10DVbZ5gj3JFGft-84" value="C" style="text;html=1;align=center;verticalAlign=middle;resizable=0;points=[];autosize=1;strokeColor=none;fillColor=none;" vertex="1" parent="1">
          <mxGeometry x="-2360" y="-2718" width="30" height="30" as="geometry" />
        </mxCell>
        <mxCell id="6byXY10DVbZ5gj3JFGft-85" value="D" style="text;html=1;align=center;verticalAlign=middle;resizable=0;points=[];autosize=1;strokeColor=none;fillColor=none;" vertex="1" parent="1">
          <mxGeometry x="-2360" y="-2768" width="30" height="30" as="geometry" />
        </mxCell>
        <mxCell id="6byXY10DVbZ5gj3JFGft-86" value="" style="line;strokeWidth=2;html=1;" vertex="1" parent="1">
          <mxGeometry x="-2330" y="-2618" width="690" height="10" as="geometry" />
        </mxCell>
        <mxCell id="6byXY10DVbZ5gj3JFGft-87" value="" style="line;strokeWidth=2;html=1;" vertex="1" parent="1">
          <mxGeometry x="-2330" y="-2660" width="690" height="10" as="geometry" />
        </mxCell>
        <mxCell id="6byXY10DVbZ5gj3JFGft-88" value="" style="line;strokeWidth=2;html=1;" vertex="1" parent="1">
          <mxGeometry x="-2330" y="-2708" width="690" height="10" as="geometry" />
        </mxCell>
        <mxCell id="6byXY10DVbZ5gj3JFGft-89" value="" style="line;strokeWidth=2;html=1;" vertex="1" parent="1">
          <mxGeometry x="-2330" y="-2758" width="680" height="10" as="geometry" />
        </mxCell>
        <mxCell id="6byXY10DVbZ5gj3JFGft-90" value="" style="line;strokeWidth=2;direction=south;html=1;" vertex="1" parent="1">
          <mxGeometry x="-2310" y="-2568" width="10" height="30" as="geometry" />
        </mxCell>
        <mxCell id="6byXY10DVbZ5gj3JFGft-91" value="" style="line;strokeWidth=2;direction=south;html=1;" vertex="1" parent="1">
          <mxGeometry x="-2270" y="-2568" width="10" height="30" as="geometry" />
        </mxCell>
        <mxCell id="6byXY10DVbZ5gj3JFGft-92" value="" style="line;strokeWidth=2;direction=south;html=1;" vertex="1" parent="1">
          <mxGeometry x="-2230" y="-2568" width="10" height="30" as="geometry" />
        </mxCell>
        <mxCell id="6byXY10DVbZ5gj3JFGft-93" value="" style="line;strokeWidth=2;direction=south;html=1;" vertex="1" parent="1">
          <mxGeometry x="-2190" y="-2568" width="10" height="30" as="geometry" />
        </mxCell>
        <mxCell id="6byXY10DVbZ5gj3JFGft-94" value="" style="line;strokeWidth=2;direction=south;html=1;" vertex="1" parent="1">
          <mxGeometry x="-2150" y="-2568" width="10" height="30" as="geometry" />
        </mxCell>
        <mxCell id="6byXY10DVbZ5gj3JFGft-95" value="" style="line;strokeWidth=2;direction=south;html=1;" vertex="1" parent="1">
          <mxGeometry x="-2110" y="-2568" width="10" height="30" as="geometry" />
        </mxCell>
        <mxCell id="6byXY10DVbZ5gj3JFGft-96" value="" style="line;strokeWidth=2;direction=south;html=1;" vertex="1" parent="1">
          <mxGeometry x="-2067" y="-2568" width="10" height="30" as="geometry" />
        </mxCell>
        <mxCell id="6byXY10DVbZ5gj3JFGft-97" value="" style="line;strokeWidth=2;direction=south;html=1;" vertex="1" parent="1">
          <mxGeometry x="-2030" y="-2568" width="10" height="30" as="geometry" />
        </mxCell>
        <mxCell id="6byXY10DVbZ5gj3JFGft-98" value="" style="line;strokeWidth=2;direction=south;html=1;" vertex="1" parent="1">
          <mxGeometry x="-1990" y="-2568" width="10" height="30" as="geometry" />
        </mxCell>
        <mxCell id="6byXY10DVbZ5gj3JFGft-99" value="" style="line;strokeWidth=2;direction=south;html=1;" vertex="1" parent="1">
          <mxGeometry x="-1950" y="-2568" width="10" height="30" as="geometry" />
        </mxCell>
        <mxCell id="6byXY10DVbZ5gj3JFGft-100" value="" style="line;strokeWidth=2;direction=south;html=1;" vertex="1" parent="1">
          <mxGeometry x="-1910" y="-2568" width="10" height="30" as="geometry" />
        </mxCell>
        <mxCell id="6byXY10DVbZ5gj3JFGft-101" value="" style="line;strokeWidth=2;direction=south;html=1;" vertex="1" parent="1">
          <mxGeometry x="-1870" y="-2568" width="10" height="30" as="geometry" />
        </mxCell>
        <mxCell id="6byXY10DVbZ5gj3JFGft-102" value="" style="line;strokeWidth=2;direction=south;html=1;" vertex="1" parent="1">
          <mxGeometry x="-1830" y="-2568" width="10" height="30" as="geometry" />
        </mxCell>
        <mxCell id="6byXY10DVbZ5gj3JFGft-103" value="" style="line;strokeWidth=2;direction=south;html=1;" vertex="1" parent="1">
          <mxGeometry x="-1790" y="-2568" width="10" height="30" as="geometry" />
        </mxCell>
        <mxCell id="6byXY10DVbZ5gj3JFGft-104" value="1" style="text;html=1;align=center;verticalAlign=middle;resizable=0;points=[];autosize=1;strokeColor=none;fillColor=none;" vertex="1" parent="1">
          <mxGeometry x="-2320" y="-2538" width="30" height="30" as="geometry" />
        </mxCell>
        <mxCell id="6byXY10DVbZ5gj3JFGft-105" value="2" style="text;whiteSpace=wrap;html=1;" vertex="1" parent="1">
          <mxGeometry x="-2270" y="-2538" width="20" height="40" as="geometry" />
        </mxCell>
        <mxCell id="6byXY10DVbZ5gj3JFGft-106" value="&lt;span style=&quot;color: rgb(0, 0, 0); font-family: Helvetica; font-size: 12px; font-style: normal; font-variant-ligatures: normal; font-variant-caps: normal; font-weight: 400; letter-spacing: normal; orphans: 2; text-align: center; text-indent: 0px; text-transform: none; widows: 2; word-spacing: 0px; -webkit-text-stroke-width: 0px; white-space: nowrap; background-color: rgb(236, 236, 236); text-decoration-thickness: initial; text-decoration-style: initial; text-decoration-color: initial; float: none; display: inline !important;&quot;&gt;3&lt;/span&gt;" style="text;whiteSpace=wrap;html=1;" vertex="1" parent="1">
          <mxGeometry x="-2230" y="-2538" width="20" height="30" as="geometry" />
        </mxCell>
        <mxCell id="6byXY10DVbZ5gj3JFGft-107" value="4" style="text;whiteSpace=wrap;html=1;" vertex="1" parent="1">
          <mxGeometry x="-2190" y="-2538" width="10" height="40" as="geometry" />
        </mxCell>
        <mxCell id="6byXY10DVbZ5gj3JFGft-108" value="5" style="text;whiteSpace=wrap;html=1;" vertex="1" parent="1">
          <mxGeometry x="-2150" y="-2538" width="20" height="30" as="geometry" />
        </mxCell>
        <mxCell id="6byXY10DVbZ5gj3JFGft-109" value="6" style="text;whiteSpace=wrap;html=1;" vertex="1" parent="1">
          <mxGeometry x="-2110" y="-2538" width="10" height="40" as="geometry" />
        </mxCell>
        <mxCell id="6byXY10DVbZ5gj3JFGft-110" value="7" style="text;whiteSpace=wrap;html=1;" vertex="1" parent="1">
          <mxGeometry x="-2067" y="-2538" width="10" height="40" as="geometry" />
        </mxCell>
        <mxCell id="6byXY10DVbZ5gj3JFGft-111" value="8" style="text;whiteSpace=wrap;html=1;" vertex="1" parent="1">
          <mxGeometry x="-2030" y="-2538" width="10" height="30" as="geometry" />
        </mxCell>
        <mxCell id="6byXY10DVbZ5gj3JFGft-112" value="9" style="text;whiteSpace=wrap;html=1;" vertex="1" parent="1">
          <mxGeometry x="-1990" y="-2538" width="20" height="30" as="geometry" />
        </mxCell>
        <mxCell id="6byXY10DVbZ5gj3JFGft-113" value="10" style="text;whiteSpace=wrap;html=1;" vertex="1" parent="1">
          <mxGeometry x="-1955" y="-2538" width="20" height="30" as="geometry" />
        </mxCell>
        <mxCell id="6byXY10DVbZ5gj3JFGft-114" value="11" style="text;whiteSpace=wrap;html=1;" vertex="1" parent="1">
          <mxGeometry x="-1915" y="-2538" width="20" height="30" as="geometry" />
        </mxCell>
        <mxCell id="6byXY10DVbZ5gj3JFGft-115" value="12" style="text;whiteSpace=wrap;html=1;" vertex="1" parent="1">
          <mxGeometry x="-1875" y="-2538" width="20" height="30" as="geometry" />
        </mxCell>
        <mxCell id="6byXY10DVbZ5gj3JFGft-116" value="14" style="text;whiteSpace=wrap;html=1;" vertex="1" parent="1">
          <mxGeometry x="-1795" y="-2538" width="20" height="30" as="geometry" />
        </mxCell>
        <mxCell id="6byXY10DVbZ5gj3JFGft-117" value="13" style="text;whiteSpace=wrap;html=1;" vertex="1" parent="1">
          <mxGeometry x="-1835" y="-2538" width="20" height="30" as="geometry" />
        </mxCell>
        <mxCell id="6byXY10DVbZ5gj3JFGft-118" value="" style="rounded=0;whiteSpace=wrap;html=1;strokeColor=light-dark(#bbff00, #ededed);fillColor=#FFF60A;" vertex="1" parent="1">
          <mxGeometry x="-2325" y="-2628" width="105" height="30" as="geometry" />
        </mxCell>
        <mxCell id="6byXY10DVbZ5gj3JFGft-119" value="" style="rounded=0;whiteSpace=wrap;html=1;fillColor=light-dark(#ff0000, #ededed);" vertex="1" parent="1">
          <mxGeometry x="-2220" y="-2628" width="70" height="30" as="geometry" />
        </mxCell>
        <mxCell id="6byXY10DVbZ5gj3JFGft-120" value="" style="rounded=0;whiteSpace=wrap;html=1;fillColor=#FFF60A;" vertex="1" parent="1">
          <mxGeometry x="-1950" y="-2628" width="50" height="30" as="geometry" />
        </mxCell>
        <mxCell id="6byXY10DVbZ5gj3JFGft-121" value="" style="rounded=0;whiteSpace=wrap;html=1;fillColor=#FFF60A;" vertex="1" parent="1">
          <mxGeometry x="-2220" y="-2680" width="70" height="40" as="geometry" />
        </mxCell>
        <mxCell id="6byXY10DVbZ5gj3JFGft-122" value="" style="rounded=0;whiteSpace=wrap;html=1;fillColor=#FF0000;" vertex="1" parent="1">
          <mxGeometry x="-2150" y="-2680" width="40" height="40" as="geometry" />
        </mxCell>
        <mxCell id="6byXY10DVbZ5gj3JFGft-123" value="" style="rounded=0;whiteSpace=wrap;html=1;fillColor=#FFF60A;" vertex="1" parent="1">
          <mxGeometry x="-2155" y="-2728" width="45" height="40" as="geometry" />
        </mxCell>
        <mxCell id="6byXY10DVbZ5gj3JFGft-124" value="" style="rounded=0;whiteSpace=wrap;html=1;fillColor=#FFF60A;" vertex="1" parent="1">
          <mxGeometry x="-2110" y="-2778" width="155" height="40" as="geometry" />
        </mxCell>
        <mxCell id="6byXY10DVbZ5gj3JFGft-125" value="15" style="text;html=1;align=center;verticalAlign=middle;resizable=0;points=[];autosize=1;strokeColor=none;fillColor=none;" vertex="1" parent="1">
          <mxGeometry x="-1770" y="-2538" width="40" height="30" as="geometry" />
        </mxCell>
        <mxCell id="6byXY10DVbZ5gj3JFGft-126" value="" style="rounded=0;whiteSpace=wrap;html=1;fillColor=#FF0000;" vertex="1" parent="1">
          <mxGeometry x="-1955" y="-2778" width="40" height="40" as="geometry" />
        </mxCell>
        <mxCell id="6byXY10DVbZ5gj3JFGft-127" value="" style="line;strokeWidth=2;direction=south;html=1;" vertex="1" parent="1">
          <mxGeometry x="-1750" y="-2568" width="10" height="30" as="geometry" />
        </mxCell>
        <mxCell id="6byXY10DVbZ5gj3JFGft-128" value="Schema Multitasking" style="text;html=1;align=center;verticalAlign=middle;resizable=0;points=[];autosize=1;strokeColor=none;fillColor=none;" vertex="1" parent="1">
          <mxGeometry x="-2110" y="-2980" width="130" height="30" as="geometry" />
        </mxCell>
        <mxCell id="6byXY10DVbZ5gj3JFGft-129" value="" style="rounded=0;whiteSpace=wrap;html=1;" vertex="1" parent="1">
          <mxGeometry x="-2420" y="-2440" width="790" height="422" as="geometry" />
        </mxCell>
        <mxCell id="6byXY10DVbZ5gj3JFGft-130" value="" style="line;strokeWidth=2;html=1;" vertex="1" parent="1">
          <mxGeometry x="-2340" y="-2068" width="700" height="10" as="geometry" />
        </mxCell>
        <mxCell id="6byXY10DVbZ5gj3JFGft-131" value="" style="line;strokeWidth=2;direction=south;html=1;" vertex="1" parent="1">
          <mxGeometry x="-2340" y="-2418" width="10" height="360" as="geometry" />
        </mxCell>
        <mxCell id="6byXY10DVbZ5gj3JFGft-132" value="Processo" style="text;html=1;align=center;verticalAlign=middle;resizable=0;points=[];autosize=1;strokeColor=none;fillColor=none;rotation=-90;" vertex="1" parent="1">
          <mxGeometry x="-2390" y="-2398" width="70" height="30" as="geometry" />
        </mxCell>
        <mxCell id="6byXY10DVbZ5gj3JFGft-133" value="Tempo (t)" style="text;html=1;align=center;verticalAlign=middle;resizable=0;points=[];autosize=1;strokeColor=none;fillColor=none;" vertex="1" parent="1">
          <mxGeometry x="-1710" y="-2068" width="70" height="30" as="geometry" />
        </mxCell>
        <mxCell id="6byXY10DVbZ5gj3JFGft-134" value="A" style="text;html=1;align=center;verticalAlign=middle;resizable=0;points=[];autosize=1;strokeColor=none;fillColor=none;" vertex="1" parent="1">
          <mxGeometry x="-2370" y="-2138" width="30" height="30" as="geometry" />
        </mxCell>
        <mxCell id="6byXY10DVbZ5gj3JFGft-135" value="B" style="text;html=1;align=center;verticalAlign=middle;resizable=0;points=[];autosize=1;strokeColor=none;fillColor=none;" vertex="1" parent="1">
          <mxGeometry x="-2370" y="-2180" width="30" height="30" as="geometry" />
        </mxCell>
        <mxCell id="6byXY10DVbZ5gj3JFGft-136" value="C" style="text;html=1;align=center;verticalAlign=middle;resizable=0;points=[];autosize=1;strokeColor=none;fillColor=none;" vertex="1" parent="1">
          <mxGeometry x="-2370" y="-2228" width="30" height="30" as="geometry" />
        </mxCell>
        <mxCell id="6byXY10DVbZ5gj3JFGft-137" value="D" style="text;html=1;align=center;verticalAlign=middle;resizable=0;points=[];autosize=1;strokeColor=none;fillColor=none;" vertex="1" parent="1">
          <mxGeometry x="-2370" y="-2278" width="30" height="30" as="geometry" />
        </mxCell>
        <mxCell id="6byXY10DVbZ5gj3JFGft-138" value="" style="line;strokeWidth=2;html=1;" vertex="1" parent="1">
          <mxGeometry x="-2340" y="-2128" width="690" height="10" as="geometry" />
        </mxCell>
        <mxCell id="6byXY10DVbZ5gj3JFGft-139" value="" style="line;strokeWidth=2;html=1;" vertex="1" parent="1">
          <mxGeometry x="-2340" y="-2170" width="690" height="10" as="geometry" />
        </mxCell>
        <mxCell id="6byXY10DVbZ5gj3JFGft-140" value="" style="line;strokeWidth=2;html=1;" vertex="1" parent="1">
          <mxGeometry x="-2340" y="-2218" width="690" height="10" as="geometry" />
        </mxCell>
        <mxCell id="6byXY10DVbZ5gj3JFGft-141" value="" style="line;strokeWidth=2;html=1;" vertex="1" parent="1">
          <mxGeometry x="-2340" y="-2268" width="680" height="10" as="geometry" />
        </mxCell>
        <mxCell id="6byXY10DVbZ5gj3JFGft-142" value="" style="line;strokeWidth=2;direction=south;html=1;" vertex="1" parent="1">
          <mxGeometry x="-2320" y="-2078" width="10" height="30" as="geometry" />
        </mxCell>
        <mxCell id="6byXY10DVbZ5gj3JFGft-143" value="" style="line;strokeWidth=2;direction=south;html=1;" vertex="1" parent="1">
          <mxGeometry x="-2280" y="-2078" width="10" height="30" as="geometry" />
        </mxCell>
        <mxCell id="6byXY10DVbZ5gj3JFGft-144" value="" style="line;strokeWidth=2;direction=south;html=1;" vertex="1" parent="1">
          <mxGeometry x="-2240" y="-2078" width="10" height="30" as="geometry" />
        </mxCell>
        <mxCell id="6byXY10DVbZ5gj3JFGft-145" value="" style="line;strokeWidth=2;direction=south;html=1;" vertex="1" parent="1">
          <mxGeometry x="-2200" y="-2078" width="10" height="30" as="geometry" />
        </mxCell>
        <mxCell id="6byXY10DVbZ5gj3JFGft-146" value="" style="line;strokeWidth=2;direction=south;html=1;" vertex="1" parent="1">
          <mxGeometry x="-2160" y="-2078" width="10" height="30" as="geometry" />
        </mxCell>
        <mxCell id="6byXY10DVbZ5gj3JFGft-147" value="" style="line;strokeWidth=2;direction=south;html=1;" vertex="1" parent="1">
          <mxGeometry x="-2120" y="-2078" width="10" height="30" as="geometry" />
        </mxCell>
        <mxCell id="6byXY10DVbZ5gj3JFGft-148" value="" style="line;strokeWidth=2;direction=south;html=1;" vertex="1" parent="1">
          <mxGeometry x="-2077" y="-2078" width="10" height="30" as="geometry" />
        </mxCell>
        <mxCell id="6byXY10DVbZ5gj3JFGft-149" value="" style="line;strokeWidth=2;direction=south;html=1;" vertex="1" parent="1">
          <mxGeometry x="-2040" y="-2078" width="10" height="30" as="geometry" />
        </mxCell>
        <mxCell id="6byXY10DVbZ5gj3JFGft-150" value="" style="line;strokeWidth=2;direction=south;html=1;" vertex="1" parent="1">
          <mxGeometry x="-2000" y="-2078" width="10" height="30" as="geometry" />
        </mxCell>
        <mxCell id="6byXY10DVbZ5gj3JFGft-151" value="" style="line;strokeWidth=2;direction=south;html=1;" vertex="1" parent="1">
          <mxGeometry x="-1960" y="-2078" width="10" height="30" as="geometry" />
        </mxCell>
        <mxCell id="6byXY10DVbZ5gj3JFGft-152" value="" style="line;strokeWidth=2;direction=south;html=1;" vertex="1" parent="1">
          <mxGeometry x="-1920" y="-2078" width="10" height="30" as="geometry" />
        </mxCell>
        <mxCell id="6byXY10DVbZ5gj3JFGft-153" value="" style="line;strokeWidth=2;direction=south;html=1;" vertex="1" parent="1">
          <mxGeometry x="-1880" y="-2078" width="10" height="30" as="geometry" />
        </mxCell>
        <mxCell id="6byXY10DVbZ5gj3JFGft-154" value="" style="line;strokeWidth=2;direction=south;html=1;" vertex="1" parent="1">
          <mxGeometry x="-1840" y="-2078" width="10" height="30" as="geometry" />
        </mxCell>
        <mxCell id="6byXY10DVbZ5gj3JFGft-155" value="" style="line;strokeWidth=2;direction=south;html=1;" vertex="1" parent="1">
          <mxGeometry x="-1800" y="-2078" width="10" height="30" as="geometry" />
        </mxCell>
        <mxCell id="6byXY10DVbZ5gj3JFGft-156" value="1" style="text;html=1;align=center;verticalAlign=middle;resizable=0;points=[];autosize=1;strokeColor=none;fillColor=none;" vertex="1" parent="1">
          <mxGeometry x="-2330" y="-2048" width="30" height="30" as="geometry" />
        </mxCell>
        <mxCell id="6byXY10DVbZ5gj3JFGft-157" value="2" style="text;whiteSpace=wrap;html=1;" vertex="1" parent="1">
          <mxGeometry x="-2280" y="-2048" width="20" height="40" as="geometry" />
        </mxCell>
        <mxCell id="6byXY10DVbZ5gj3JFGft-158" value="&lt;span style=&quot;color: rgb(0, 0, 0); font-family: Helvetica; font-size: 12px; font-style: normal; font-variant-ligatures: normal; font-variant-caps: normal; font-weight: 400; letter-spacing: normal; orphans: 2; text-align: center; text-indent: 0px; text-transform: none; widows: 2; word-spacing: 0px; -webkit-text-stroke-width: 0px; white-space: nowrap; background-color: rgb(236, 236, 236); text-decoration-thickness: initial; text-decoration-style: initial; text-decoration-color: initial; float: none; display: inline !important;&quot;&gt;3&lt;/span&gt;" style="text;whiteSpace=wrap;html=1;" vertex="1" parent="1">
          <mxGeometry x="-2240" y="-2048" width="20" height="30" as="geometry" />
        </mxCell>
        <mxCell id="6byXY10DVbZ5gj3JFGft-159" value="4" style="text;whiteSpace=wrap;html=1;" vertex="1" parent="1">
          <mxGeometry x="-2200" y="-2048" width="10" height="40" as="geometry" />
        </mxCell>
        <mxCell id="6byXY10DVbZ5gj3JFGft-160" value="5" style="text;whiteSpace=wrap;html=1;" vertex="1" parent="1">
          <mxGeometry x="-2160" y="-2048" width="20" height="30" as="geometry" />
        </mxCell>
        <mxCell id="6byXY10DVbZ5gj3JFGft-161" value="6" style="text;whiteSpace=wrap;html=1;" vertex="1" parent="1">
          <mxGeometry x="-2120" y="-2048" width="10" height="40" as="geometry" />
        </mxCell>
        <mxCell id="6byXY10DVbZ5gj3JFGft-162" value="7" style="text;whiteSpace=wrap;html=1;" vertex="1" parent="1">
          <mxGeometry x="-2077" y="-2048" width="10" height="40" as="geometry" />
        </mxCell>
        <mxCell id="6byXY10DVbZ5gj3JFGft-163" value="8" style="text;whiteSpace=wrap;html=1;" vertex="1" parent="1">
          <mxGeometry x="-2040" y="-2048" width="10" height="30" as="geometry" />
        </mxCell>
        <mxCell id="6byXY10DVbZ5gj3JFGft-164" value="9" style="text;whiteSpace=wrap;html=1;" vertex="1" parent="1">
          <mxGeometry x="-2000" y="-2048" width="20" height="30" as="geometry" />
        </mxCell>
        <mxCell id="6byXY10DVbZ5gj3JFGft-165" value="10" style="text;whiteSpace=wrap;html=1;" vertex="1" parent="1">
          <mxGeometry x="-1965" y="-2048" width="20" height="30" as="geometry" />
        </mxCell>
        <mxCell id="6byXY10DVbZ5gj3JFGft-166" value="11" style="text;whiteSpace=wrap;html=1;" vertex="1" parent="1">
          <mxGeometry x="-1925" y="-2048" width="20" height="30" as="geometry" />
        </mxCell>
        <mxCell id="6byXY10DVbZ5gj3JFGft-167" value="12" style="text;whiteSpace=wrap;html=1;" vertex="1" parent="1">
          <mxGeometry x="-1885" y="-2048" width="20" height="30" as="geometry" />
        </mxCell>
        <mxCell id="6byXY10DVbZ5gj3JFGft-168" value="14" style="text;whiteSpace=wrap;html=1;" vertex="1" parent="1">
          <mxGeometry x="-1805" y="-2048" width="20" height="30" as="geometry" />
        </mxCell>
        <mxCell id="6byXY10DVbZ5gj3JFGft-169" value="13" style="text;whiteSpace=wrap;html=1;" vertex="1" parent="1">
          <mxGeometry x="-1845" y="-2048" width="20" height="30" as="geometry" />
        </mxCell>
        <mxCell id="6byXY10DVbZ5gj3JFGft-170" value="" style="rounded=0;whiteSpace=wrap;html=1;strokeColor=light-dark(#bbff00, #ededed);fillColor=#FFF60A;" vertex="1" parent="1">
          <mxGeometry x="-2335" y="-2138" width="65" height="30" as="geometry" />
        </mxCell>
        <mxCell id="6byXY10DVbZ5gj3JFGft-171" value="" style="rounded=0;whiteSpace=wrap;html=1;fillColor=light-dark(#ff0000, #ededed);" vertex="1" parent="1">
          <mxGeometry x="-2067" y="-2138" width="70" height="30" as="geometry" />
        </mxCell>
        <mxCell id="6byXY10DVbZ5gj3JFGft-172" value="" style="rounded=0;whiteSpace=wrap;html=1;fillColor=#FFF60A;" vertex="1" parent="1">
          <mxGeometry x="-1880" y="-2138" width="50" height="30" as="geometry" />
        </mxCell>
        <mxCell id="6byXY10DVbZ5gj3JFGft-173" value="" style="rounded=0;whiteSpace=wrap;html=1;fillColor=#FFF60A;" vertex="1" parent="1">
          <mxGeometry x="-2270" y="-2190" width="70" height="40" as="geometry" />
        </mxCell>
        <mxCell id="6byXY10DVbZ5gj3JFGft-174" value="" style="rounded=0;whiteSpace=wrap;html=1;fillColor=#FF0000;" vertex="1" parent="1">
          <mxGeometry x="-2000" y="-2200" width="40" height="40" as="geometry" />
        </mxCell>
        <mxCell id="6byXY10DVbZ5gj3JFGft-175" value="" style="rounded=0;whiteSpace=wrap;html=1;fillColor=#FFF60A;" vertex="1" parent="1">
          <mxGeometry x="-2200" y="-2238" width="45" height="40" as="geometry" />
        </mxCell>
        <mxCell id="6byXY10DVbZ5gj3JFGft-176" value="" style="rounded=0;whiteSpace=wrap;html=1;fillColor=#FFF60A;" vertex="1" parent="1">
          <mxGeometry x="-2150" y="-2288" width="70" height="40" as="geometry" />
        </mxCell>
        <mxCell id="6byXY10DVbZ5gj3JFGft-177" value="15" style="text;html=1;align=center;verticalAlign=middle;resizable=0;points=[];autosize=1;strokeColor=none;fillColor=none;" vertex="1" parent="1">
          <mxGeometry x="-1780" y="-2048" width="40" height="30" as="geometry" />
        </mxCell>
        <mxCell id="6byXY10DVbZ5gj3JFGft-178" value="" style="rounded=0;whiteSpace=wrap;html=1;fillColor=#FFF60A;" vertex="1" parent="1">
          <mxGeometry x="-1830" y="-2288" width="40" height="40" as="geometry" />
        </mxCell>
        <mxCell id="6byXY10DVbZ5gj3JFGft-179" value="" style="line;strokeWidth=2;direction=south;html=1;" vertex="1" parent="1">
          <mxGeometry x="-1760" y="-2078" width="10" height="30" as="geometry" />
        </mxCell>
        <mxCell id="6byXY10DVbZ5gj3JFGft-182" value="" style="rounded=0;whiteSpace=wrap;html=1;fillColor=#FFF60A;" vertex="1" parent="1">
          <mxGeometry x="-1955" y="-2288" width="70" height="40" as="geometry" />
        </mxCell>
        <mxCell id="6byXY10DVbZ5gj3JFGft-184" value="" style="rounded=0;whiteSpace=wrap;html=1;fillColor=#FF0000;" vertex="1" parent="1">
          <mxGeometry x="-1790" y="-2288" width="40" height="40" as="geometry" />
        </mxCell>
        <mxCell id="6byXY10DVbZ5gj3JFGft-185" value="Schema Timesharing" style="text;html=1;align=center;verticalAlign=middle;resizable=0;points=[];autosize=1;strokeColor=none;fillColor=none;" vertex="1" parent="1">
          <mxGeometry x="-2100" y="-2482" width="140" height="30" as="geometry" />
        </mxCell>
        <mxCell id="6byXY10DVbZ5gj3JFGft-187" value="" style="rounded=0;whiteSpace=wrap;html=1;" vertex="1" parent="1">
          <mxGeometry x="-1500" y="-3442" width="180" height="212" as="geometry" />
        </mxCell>
        <mxCell id="6byXY10DVbZ5gj3JFGft-188" value="" style="rounded=0;whiteSpace=wrap;html=1;fillColor=#FF0000;" vertex="1" parent="1">
          <mxGeometry x="-1490" y="-3320" width="40" height="40" as="geometry" />
        </mxCell>
        <mxCell id="6byXY10DVbZ5gj3JFGft-189" value="" style="rounded=0;whiteSpace=wrap;html=1;fillColor=#FFF60A;" vertex="1" parent="1">
          <mxGeometry x="-1490" y="-3390" width="40" height="40" as="geometry" />
        </mxCell>
        <mxCell id="6byXY10DVbZ5gj3JFGft-190" value="Legenda" style="text;html=1;align=center;verticalAlign=middle;resizable=0;points=[];autosize=1;strokeColor=none;fillColor=none;" vertex="1" parent="1">
          <mxGeometry x="-1445" y="-3430" width="70" height="30" as="geometry" />
        </mxCell>
        <mxCell id="6byXY10DVbZ5gj3JFGft-191" value="Tempo di Esecuzione" style="text;html=1;align=center;verticalAlign=middle;resizable=0;points=[];autosize=1;strokeColor=none;fillColor=none;" vertex="1" parent="1">
          <mxGeometry x="-1450" y="-3385" width="140" height="30" as="geometry" />
        </mxCell>
        <mxCell id="6byXY10DVbZ5gj3JFGft-192" value="Tempo di Attesa" style="text;html=1;align=center;verticalAlign=middle;resizable=0;points=[];autosize=1;strokeColor=none;fillColor=none;" vertex="1" parent="1">
          <mxGeometry x="-1440" y="-3315" width="110" height="30" as="geometry" />
        </mxCell>
      </root>
    </mxGraphModel>
  </diagram>
</mxfile>
